<svg width="16" height="16" viewBox="0 0 16 16" fill="none" xmlns="http://www.w3.org/2000/svg">
<path fill-rule="evenodd" clip-rule="evenodd" d="M9.38474 3.71677C9.51492 3.5866 9.72597 3.5866 9.85615 3.71677L13.9028 7.76344C13.9653 7.82595 14.0004 7.91073 14.0004 7.99914C14.0004 8.08755 13.9653 8.17233 13.9028 8.23484L9.85615 12.2815C9.72597 12.4117 9.51492 12.4117 9.38474 12.2815C9.25457 12.1513 9.25457 11.9403 9.38474 11.8101L13.1957 7.99914L9.38474 4.18818C9.25457 4.058 9.25457 3.84695 9.38474 3.71677Z" fill="white" stroke="white" stroke-width="0.7" stroke-miterlimit="10" stroke-linecap="round" stroke-linejoin="round"/>
<path fill-rule="evenodd" clip-rule="evenodd" d="M2 7.99935C2 7.81525 2.14924 7.66602 2.33333 7.66602H13.5533C13.7374 7.66602 13.8867 7.81525 13.8867 7.99935C13.8867 8.18344 13.7374 8.33268 13.5533 8.33268H2.33333C2.14924 8.33268 2 8.18344 2 7.99935Z" fill="white" stroke="white" stroke-width="0.7" stroke-miterlimit="10" stroke-linecap="round" stroke-linejoin="round"/>
</svg>
